<?xml version="1.0" encoding="UTF-8"?>
<svg width="117px" height="142px" viewBox="0 0 117 142" version="1.1" xmlns="http://www.w3.org/2000/svg" xmlns:xlink="http://www.w3.org/1999/xlink">
    <!-- Generator: Sketch 49 (51002) - http://www.bohemiancoding.com/sketch -->
    <title>lockLogo</title>
    <desc>Created with Sketch.</desc>
    <defs></defs>
    <g id="iPhone-SE" stroke="none" stroke-width="1" fill="none" fill-rule="evenodd">
        <g id="Login" transform="translate(-102.000000, -69.000000)">
            <g id="lockLogo" transform="translate(102.000000, 69.000000)">
                <g id="Group" transform="translate(21.000000, 0.000000)">
                    <path d="M59.2344305,59.7949219 C59.2344305,41.532056 59.2344305,40.4123222 59.2344305,30.1172152 C59.2344305,17.6260722 49.1083583,7.5 36.6172152,7.5 C24.1260722,7.5 14,17.6260722 14,30.1172152 C14,40.4871312 14,41.619409 14,59.7949176 C26.1902898,59.7949219 27.5424899,59.7949219 36.6172152,59.7949219 C45.759533,59.7949219 47.129085,59.7949219 59.2344305,59.7949219 Z" id="Oval-5-Copy" stroke="#B7BFC8" stroke-width="15"></path>
                    <rect id="Rectangle-19-Copy" fill="#739AE7" x="0" y="46.5" width="74" height="68.5"></rect>
                </g>
                <path d="M8.28515625,141.132812 L4.65234375,141.132812 L4.65234375,127.023438 L0,127.023438 L0,124 L12.9375,124 L12.9375,127.023438 L8.28515625,127.023438 L8.28515625,141.132812 Z M30.0390625,141.132812 L26.4179688,141.132812 L26.4179688,133.738281 L19.6328125,133.738281 L19.6328125,141.132812 L16,141.132812 L16,124 L19.6328125,124 L19.6328125,130.714844 L26.4179688,130.714844 L26.4179688,124 L30.0390625,124 L30.0390625,141.132812 Z M43.8671875,141.132812 L34,141.132812 L34,124 L43.8671875,124 L43.8671875,126.976562 L37.6328125,126.976562 L37.6328125,130.738281 L43.4335938,130.738281 L43.4335938,133.714844 L37.6328125,133.714844 L37.6328125,138.132812 L43.8671875,138.132812 L43.8671875,141.132812 Z M55.0703125,141.402344 L55.0703125,124.269531 L58.703125,124.269531 L58.703125,138.402344 L65.6523438,138.402344 L65.6523438,141.402344 L55.0703125,141.402344 Z M84.1796875,132.8125 C84.1796875,135.648452 83.4765695,137.828117 82.0703125,139.351562 C80.6640555,140.875008 78.6484506,141.636719 76.0234375,141.636719 C73.3984244,141.636719 71.3828195,140.875008 69.9765625,139.351562 C68.5703055,137.828117 67.8671875,135.640639 67.8671875,132.789062 C67.8671875,129.937486 68.5722586,127.759773 69.9824219,126.255859 C71.3925852,124.751946 73.4140493,124 76.046875,124 C78.6797007,124 80.6933524,124.757805 82.0878906,126.273438 C83.4824288,127.78907 84.1796875,129.968736 84.1796875,132.8125 Z M71.6757812,132.8125 C71.6757812,134.726572 72.0390589,136.167964 72.765625,137.136719 C73.4921911,138.105474 74.5781178,138.589844 76.0234375,138.589844 C78.9218895,138.589844 80.3710938,136.664082 80.3710938,132.8125 C80.3710938,128.953106 78.9297019,127.023438 76.046875,127.023438 C74.6015553,127.023438 73.5117224,127.509761 72.7773438,128.482422 C72.0429651,129.455083 71.6757812,130.898428 71.6757812,132.8125 Z M95.0078125,127.046875 C93.6406182,127.046875 92.582035,127.560542 91.8320312,128.587891 C91.0820275,129.61524 90.7070312,131.046866 90.7070312,132.882812 C90.7070312,136.703144 92.1406107,138.613281 95.0078125,138.613281 C96.2109435,138.613281 97.6679602,138.312503 99.3789062,137.710938 L99.3789062,140.757812 C97.9726492,141.343753 96.4023524,141.636719 94.6679687,141.636719 C92.1757688,141.636719 90.2695379,140.880867 88.9492187,139.369141 C87.6288996,137.857414 86.96875,135.687514 86.96875,132.859375 C86.96875,131.078116 87.2929655,129.517585 87.9414062,128.177734 C88.589847,126.837884 89.5214783,125.81055 90.7363281,125.095703 C91.9511779,124.380856 93.3749918,124.023438 95.0078125,124.023438 C96.6718833,124.023438 98.3437416,124.425777 100.023437,125.230469 L98.8515625,128.183594 C98.2109343,127.878905 97.5664095,127.613282 96.9179687,127.386719 C96.269528,127.160155 95.6328156,127.046875 95.0078125,127.046875 Z M116.804688,141.402344 L112.679688,141.402344 L108.191406,134.183594 L106.65625,135.285156 L106.65625,141.402344 L103.023438,141.402344 L103.023438,124.269531 L106.65625,124.269531 L106.65625,132.109375 L108.085938,130.09375 L112.726562,124.269531 L116.757812,124.269531 L110.78125,131.851562 L116.804688,141.402344 Z" id="TheLock" fill="#739AE7"></path>
            </g>
        </g>
    </g>
</svg>