<?xml version="1.0" encoding="UTF-8"?>
<svg width="21px" height="12px" viewBox="0 0 21 12" version="1.1" xmlns="http://www.w3.org/2000/svg" xmlns:xlink="http://www.w3.org/1999/xlink">
    <!-- Generator: Sketch 49 (51002) - http://www.bohemiancoding.com/sketch -->
    <title>Eye/active</title>
    <desc>Created with Sketch.</desc>
    <defs></defs>
    <g id="Eye/active" stroke="none" stroke-width="1" fill="none" fill-rule="evenodd">
        <g id="Eye" fill="#626C78" fill-rule="nonzero">
            <g id="Layer_1">
                <path d="M10.5,0 C6.6609375,0 3.6703125,2.24950166 0,5.90033223 C3.159375,9.02105482 5.8125,11.8006645 10.5,11.8006645 C15.1828125,11.8006645 18.628125,8.27890365 21,5.96486711 C18.571875,3.25440199 15.13125,0 10.5,0 Z M10.5,10.1089286 C8.184375,10.1089286 6.3,8.21897841 6.3,5.90033223 C6.3,3.57707641 8.184375,1.69173588 10.5,1.69173588 C12.815625,1.69173588 14.7,3.58168605 14.7,5.90033223 C14.7,8.22358804 12.815625,10.1089286 10.5,10.1089286 Z" id="Shape"></path>
                <path d="M10.5,4.42524917 C10.5,4.06108804 10.6359375,3.72919435 10.85625,3.47105482 C10.7390625,3.45261628 10.621875,3.44339701 10.5,3.44339701 C9.15,3.44339701 8.0484375,4.54509967 8.0484375,5.90033223 C8.0484375,7.25556478 9.15,8.35726744 10.5,8.35726744 C11.85,8.35726744 12.9515625,7.25556478 12.9515625,5.90033223 C12.9515625,5.79431063 12.9421875,5.68828904 12.9328125,5.58226744 C12.675,5.78048173 12.35625,5.90033223 12.0046875,5.90033223 C11.1703125,5.90033223 10.5,5.24115449 10.5,4.42524917 Z" id="Shape"></path>
            </g>
        </g>
    </g>
</svg>