<?xml version="1.0" encoding="UTF-8"?>
<svg width="21px" height="12px" viewBox="0 0 21 12" version="1.1" xmlns="http://www.w3.org/2000/svg" xmlns:xlink="http://www.w3.org/1999/xlink">
    <!-- Generator: Sketch 49 (51002) - http://www.bohemiancoding.com/sketch -->
    <title>Eye/inactive</title>
    <desc>Created with Sketch.</desc>
    <defs></defs>
    <g id="Eye/inactive" stroke="none" stroke-width="1" fill="none" fill-rule="evenodd">
        <path d="M16.7530877,2.08479774 L13.7115044,3.19184356 C12.9404122,2.27535601 11.7867915,1.69173588 10.5,1.69173588 C8.18800636,1.69173588 6.30591121,3.57116787 6.3000139,5.88940548 L1.69887805,7.56408197 C1.13915851,7.03087483 0.578052851,6.47131307 0,5.90033223 C3.6703125,2.24950166 6.6609375,0 10.5,0 C12.8944131,0 14.9705702,0.869907194 16.7530877,2.08479774 Z M18.6027863,3.53991807 C19.4916054,4.33132194 20.2891871,5.17140156 21,5.96486711 C18.628125,8.27890365 15.1828125,11.8006645 10.5,11.8006645 C7.53093832,11.8006645 5.37805841,10.685498 3.39574412,9.07482877 L6.77608727,7.84448448 C7.47819385,9.18859534 8.88409582,10.1089286 10.5,10.1089286 C12.815625,10.1089286 14.7,8.22358804 14.7,5.90033223 C14.7,5.59004241 14.6662531,5.28743001 14.602242,4.99599711 L18.6027863,3.53991807 Z" id="Combined-Shape" fill="#DEE3E8" fill-rule="nonzero"></path>
        <path d="M12.1321739,5.89502836 C12.4081263,5.87194633 12.6606292,5.77462383 12.8750516,5.62464301 L12.9346392,5.60295489 C12.9433674,5.70208067 12.9515625,5.80120645 12.9515625,5.90033223 C12.9515625,7.25556478 11.85,8.35726744 10.5,8.35726744 C9.64086041,8.35726744 8.88233915,7.91107283 8.44432472,7.23729571 L12.1321739,5.89502837 Z M8.14468778,5.21799909 C8.44077742,4.19389075 9.38576933,3.44339701 10.5,3.44339701 C10.621875,3.44339701 10.7390625,3.45261628 10.85625,3.47105482 C10.6491256,3.71374184 10.5165771,4.02161729 10.5014503,4.36020769 L8.14468778,5.21799909 Z" id="Combined-Shape" fill="#DEE3E8" fill-rule="nonzero"></path>
        <rect id="Rectangle-2-Copy" fill="#DEE3E8" transform="translate(10.208793, 5.030904) rotate(-20.000000) translate(-10.208793, -5.030904) " x="-0.291207338" y="4.53090413" width="21" height="1" rx="0.5"></rect>
    </g>
</svg>